<svg xmlns="http://www.w3.org/2000/svg" width="800" height="800" viewBox="0 0 800 800">
  <style>
    path {
      stroke: #340044;
      stroke-width: 1;
      stroke-dasharray: 1500;
      stroke-dashoffset: 1500;
      animation: draw 10s linear infinite;
    }

    @keyframes draw {
      from {
        stroke-dashoffset: 1500;
      }
      to {
        stroke-dashoffset: 0;
      }
    }
  </style>

<g fill="none">
  <path d="M769 229L1037 260.9"/>
  <path d="M927 880L731 737L520 660L309 538L40 599L295 764L126.5 879.5L40 599L-197 493L102 382L-31 229L126.5 79.5L-69-63"/>
  <path d="M-31 229L237 261L390 382L603 493L308.5 537.5L101.5 381.5"/>
  <path d="M370 905L295 764"/>
  <path d="M520 660L578 842L731 737L840 599L603 493L520 660L295 764L309 538L390 382L539 269L769 229L577.5 41.5L370 105L295 -36L126.5 79.5L237 261L102 382L40 599L-69 737L127 880"/>
  <path d="M520-140L578.5 42.5L731-63"/>
  <path d="M603 493L539 269L237 261L370 105"/>
  <path d="M902 382L539 269"/>
  <path d="M390 382L102 382"/>
  <path d="M-222 42L126.5 79.5L370 105L539 269L577.5 41.5L927 80L769 229L902 382L603 493L731 737"/>
  <path d="M295-36L577.5 41.5"/>
  <path d="M578 842L295 764"/>
  <path d="M40-201L127 80"/>
  <path d="M102 382L-261 269"/>


<g fill="#430055">
  <circle cx="769" cy="229" r="5"/>
  <circle cx="539" cy="269" r="5"/>
  <circle cx="603" cy="493" r="5"/>
  <circle cx="731" cy="737" r="5"/>
  <circle cx="520" cy="660" r="5"/>
  <circle cx="309" cy="538" r="5"/>
  <circle cx="295" cy="764" r="5"/>
  <circle cx="40" cy="599" r="5"/>
  <circle cx="102" cy="382" r="5"/>
  <circle cx="127" cy="80" r="5"/>
  <circle cx="370" cy="105" r="5"/>
  <circle cx="578" cy="42" r="5"/>
  <circle cx="237" cy="261" r="5"/>
  <circle cx="390" cy="382" r="5"/>
</g>
</g>


</svg>
